<svg xmlns="http://www.w3.org/2000/svg" version="1.1" x="0" y="0" viewBox="0 0 323.141 322.95">
    <polygon fill="#F0AD00" points="161.649,152.782 231.514,82.916 91.783,82.916"></polygon>
    <polygon fill="#7FD13B" points="8.867,0 79.241,70.375 232.213,70.375 161.838,0"></polygon>
    <rect fill="#7FD13B" x="192.99" y="107.392" width="107.676" height="108.167" transform="matrix(0.7071 0.7071 -0.7071 0.7071 186.4727 -127.2386)"></rect>
    <polygon fill="#60B5CC" points="323.298,143.724 323.298,0 179.573,0"></polygon>
    <polygon fill="#5A6378" points="152.781,161.649 0,8.868 0,314.432"></polygon>
    <polygon fill="#F0AD00" points="255.522,246.655 323.298,314.432 323.298,178.879"></polygon>
    <polygon fill="#60B5CC" points="161.649,170.517 8.869,323.298 314.43,323.298"></polygon>
</svg>

<svg  xmlns="http://www.w3.org/2000/svg" version="1" viewBox="0 0 323 323" width="200px" height="200px">
    <path fill="#F0AD00" d="M162 153l70-70H92z M256 247l67 67V179z"></path>
    <path fill="#7FD13B" d="M9 0l70 70h153L162 0zm238 85l77 76-77 77-76-77z"></path>
    <path fill="#60B5CC" d="M323 144V0H180z M162 171L9 323h305z"></path>
    <path fill="#5A6378" d="M153 162L0 9v305z"></path>
</svg>
